HIERARCHY
ROOT Hips
{
	OFFSET 0.000000 0.000000 0.000000 
	CHANNELS 6 Xposition Yposition Zposition Zrotation Yrotation Xrotation
	JOINT LeftUpLeg
	{
		OFFSET 1.363060 -1.794630 0.839290 
		CHANNELS 3 Zrotation Yrotation Xrotation
		JOINT LeftLeg
		{
			OFFSET 2.448110 -6.726130 0.000000 
			CHANNELS 3 Zrotation Yrotation Xrotation
			JOINT LeftFoot
			{
				OFFSET 2.562200 -7.039590 0.000000 
				CHANNELS 3 Zrotation Yrotation Xrotation
				JOINT LeftToeBase
				{
					OFFSET 0.157640 -0.433110 2.322550 
					CHANNELS 3 Zrotation Yrotation Xrotation
					End Site
					{
						OFFSET 0.000000 0.000000 0.000000 
					}
				}
			}
		}
	}
	JOINT RightUpLeg
	{
		OFFSET -1.305520 -1.794630 0.839290 
		CHANNELS 3 Zrotation Yrotation Xrotation
		JOINT RightLeg
		{
			OFFSET -2.542530 -6.985550 0.000000 
			CHANNELS 3 Zrotation Yrotation Xrotation
			JOINT RightFoot
			{
				OFFSET -2.568260 -7.056230 0.000000 
				CHANNELS 3 Zrotation Yrotation Xrotation
				JOINT RightToeBase
				{
					OFFSET -0.164730 -0.452590 2.363150 
					CHANNELS 3 Zrotation Yrotation Xrotation
					End Site
					{
						OFFSET 0.000000 0.000000 0.000000 
					}
				}
			}
		}
	}
	JOINT Spine
	{
		OFFSET 0.028270 2.035590 -0.193380 
		CHANNELS 3 Zrotation Yrotation Xrotation
		JOINT Spine1
		{
			OFFSET 0.056720 2.048850 -0.042750 
			CHANNELS 3 Zrotation Yrotation Xrotation
			JOINT Neck1
			{
				OFFSET -0.054170 1.746240 0.172020 
				CHANNELS 3 Zrotation Yrotation Xrotation
				JOINT Head
				{
					OFFSET 0.104070 1.761360 -0.123970 
					CHANNELS 3 Zrotation Yrotation Xrotation
					End Site
					{
						OFFSET 0.000000 0.000000 0.000000 
					}
				}
			}
			JOINT LeftArm
			{
				OFFSET 3.362410 1.200890 -0.311210 
				CHANNELS 3 Zrotation Yrotation Xrotation
				JOINT LeftForeArm
				{
					OFFSET 4.983000 -0.000000 -0.000000 
					CHANNELS 3 Zrotation Yrotation Xrotation
					JOINT LeftHand
					{
						OFFSET 3.483560 -0.000000 -0.000000 
						CHANNELS 3 Zrotation Yrotation Xrotation
						JOINT LeftHandIndex1
						{
							OFFSET 0.715260 -0.000000 -0.000000 
							CHANNELS 3 Zrotation Yrotation Xrotation
							End Site
							{
								OFFSET 0.000000 0.000000 0.000000 
							}
						}
					}
				}
			}
			JOINT RightArm
			{
				OFFSET -3.136600 1.374050 -0.404650 
				CHANNELS 3 Zrotation Yrotation Xrotation
				JOINT RightForeArm
				{
					OFFSET -5.241900 -0.000000 -0.000000 
					CHANNELS 3 Zrotation Yrotation Xrotation
					JOINT RightHand
					{
						OFFSET -3.444170 -0.000000 -0.000000 
						CHANNELS 3 Zrotation Yrotation Xrotation
						JOINT RightHandIndex1
						{
							OFFSET -0.622530 -0.000000 -0.000000 
							CHANNELS 3 Zrotation Yrotation Xrotation
							End Site
							{
								OFFSET 0.000000 0.000000 0.000000 
							}
						}
					}
				}
			}
		}
	}
}
MOTION
Frames: 10
Frame Time: 0.041667
41.332121 17.193529 -6.674543 25.230473 82.990856 28.762290 -26.844257 14.031830 6.070121 1.201839 6.947599 22.321519 -0.180034 1.035712 -1.282041 1.151300 -6.812700 -19.161700 33.343198 2.436416 -27.471213 -3.406489 -10.957333 30.619374 -0.727581 -14.540669 -29.657228 -3.362100 -11.259300 33.159400 0.684126 -0.448245 -0.685249 0.409603 -0.698921 8.489241 3.764185 -1.939360 15.845447 0.134400 -0.403500 9.016200 -80.454236 -6.688700 16.681356 5.833304 -12.375375 -1.342582 -1.372358 -0.144890 -0.708538 -7.125000 0.000000 0.000000 73.678676 1.507988 18.376771 -11.155014 20.598437 -2.656952 0.246419 -0.690164 -1.932878 7.125000 0.000000 0.000000 
41.432131 17.203674 -6.647081 24.044742 82.884611 27.540197 -26.522827 14.110183 5.266748 1.461306 7.511656 23.983818 -0.195547 1.095858 -0.454462 1.114700 -6.707400 -18.851300 33.558917 2.112047 -27.025602 -3.403275 -10.922482 30.587695 -0.714368 -14.374455 -29.381968 -3.420900 -11.347100 33.459700 0.708541 -0.508247 -0.697853 0.399491 -0.715517 8.469559 3.793160 -1.955392 15.864618 0.146800 -0.406200 9.043900 -80.466133 -6.089883 16.397731 5.828707 -12.394579 -1.337280 -1.358380 -0.155905 -0.759236 -7.125000 0.000000 0.000000 73.650431 1.373489 18.438224 -11.330863 20.813057 -2.713945 0.248003 -0.688305 -2.172648 7.125000 0.000000 0.000000 
41.530194 17.212691 -6.619927 22.685814 82.751675 26.127764 -26.187470 14.177095 4.456506 1.739321 8.074559 25.666601 -0.211848 1.210780 0.428293 1.061700 -6.550900 -18.391600 33.789142 1.806427 -26.556143 -3.395089 -10.879909 30.532171 -0.720357 -14.127552 -29.157387 -3.459500 -11.404200 33.655400 0.732990 -0.559597 -0.710494 0.386144 -0.726380 8.437807 3.824116 -1.971058 15.867767 0.159700 -0.409400 9.060500 -80.480435 -5.496507 16.161313 5.850193 -12.445419 -1.337511 -1.344090 -0.166058 -0.835169 -7.125000 0.000000 0.000000 73.610196 1.226468 18.581327 -11.541837 21.070100 -2.781962 0.250120 -0.685603 -2.486334 7.125000 0.000000 0.000000 
41.626105 17.220889 -6.593080 21.210409 82.582863 24.605108 -25.850168 14.229261 3.645008 2.036451 8.635827 27.370415 -0.228185 1.384337 1.365504 0.993300 -6.343000 -17.782800 34.025206 1.524758 -26.066043 -3.382578 -10.831075 30.456050 -0.739052 -13.827241 -28.969090 -3.479700 -11.433800 33.757400 0.756975 -0.598274 -0.722711 0.375780 -0.730616 8.395248 3.860307 -1.987280 15.859191 0.177900 -0.413900 9.068000 -80.505220 -4.913033 15.951082 5.895110 -12.524424 -1.343624 -1.330750 -0.175371 -0.926190 -7.125000 0.000000 0.000000 73.553912 1.073162 18.796875 -11.778513 21.357665 -2.858420 0.252650 -0.682333 -2.859956 7.125000 0.000000 0.000000 
41.719557 17.228164 -6.566848 19.642402 82.374314 22.982420 -25.515206 14.263895 2.830111 2.352070 9.193372 29.091058 -0.242876 1.611128 2.348379 0.908900 -6.075100 -17.002600 34.266729 1.268454 -25.567779 -3.366377 -10.777376 30.362770 -0.763177 -13.500598 -28.795984 -3.485100 -11.441700 33.784400 0.780024 -0.620383 -0.735000 0.366330 -0.725896 8.339747 3.899947 -2.006319 15.838098 0.199000 -0.420700 9.065000 -80.540624 -4.340137 15.773657 5.964430 -12.633256 -1.356257 -1.319064 -0.184638 -1.042634 -7.125000 0.000000 0.000000 73.481035 0.918618 19.067356 -12.033186 21.665833 -2.941492 0.255388 -0.678739 -3.273189 7.125000 0.000000 0.000000 
41.810448 17.234927 -6.541435 18.043563 82.122287 21.329900 -25.193055 14.280742 2.009130 2.684827 9.744167 30.819145 -0.254957 1.888176 3.359872 0.817400 -5.769100 -16.115800 34.505797 1.043211 -25.069393 -3.347686 -10.721047 30.257946 -0.787899 -13.170829 -28.628251 -3.482600 -11.438100 33.772000 0.801682 -0.629320 -0.747154 0.357346 -0.714318 8.272729 3.946047 -2.024098 15.806064 0.225600 -0.427700 9.051000 -80.584791 -3.781353 15.620585 6.057408 -12.771035 -1.375869 -1.309826 -0.195119 -1.193360 -7.125000 0.000000 0.000000 73.395354 0.772762 19.379182 -12.299128 21.985801 -3.029066 0.257980 -0.675107 -3.694323 7.125000 0.000000 0.000000 
41.898879 17.240973 -6.517150 16.487787 81.830292 19.717789 -24.889702 14.279053 1.190692 3.031493 10.282901 32.540863 -0.263064 2.205245 4.379817 0.722500 -5.431400 -15.143200 34.735648 0.840244 -24.574710 -3.327585 -10.663832 30.146769 -0.809095 -12.853765 -28.452296 -3.470400 -11.420200 33.710400 0.821154 -0.625922 -0.757695 0.346077 -0.696927 8.206151 3.996217 -2.045853 15.770611 0.256500 -0.437200 9.035300 -80.635318 -3.247805 15.484325 6.168960 -12.930319 -1.400984 -1.302394 -0.204760 -1.374197 -7.125000 0.000000 0.000000 73.296851 0.650006 19.716605 -12.568290 22.307835 -3.118805 0.260450 -0.671478 -4.102622 7.125000 0.000000 0.000000 
41.985158 17.246404 -6.493890 14.972151 81.503436 18.156406 -24.603332 14.253841 0.376465 3.388613 10.804923 34.241146 -0.266835 2.548748 5.364249 0.632200 -5.087600 -14.158700 34.960782 0.653932 -24.090578 -3.306837 -10.607419 30.034356 -0.825359 -12.553918 -28.262362 -3.449100 -11.388800 33.602700 0.838897 -0.612299 -0.765939 0.327992 -0.674377 8.145994 4.045684 -2.071241 15.731569 0.286000 -0.448300 9.016900 -80.691068 -2.748116 15.346782 6.289385 -13.098269 -1.429021 -1.296029 -0.212963 -1.569863 -7.125000 0.000000 0.000000 73.188923 0.556495 20.064058 -12.835856 22.626277 -3.209358 0.262483 -0.668312 -4.484038 7.125000 0.000000 0.000000 
42.069388 17.251015 -6.471859 13.544578 81.141864 16.685829 -24.339158 14.207091 -0.428751 3.752099 11.306247 35.906086 -0.266293 2.911847 6.318931 0.553800 -4.767200 -13.245900 35.176070 0.483478 -23.616863 -3.286141 -10.552251 29.922320 -0.832074 -12.296870 -28.049609 -3.410500 -11.331700 33.406900 0.854868 -0.589607 -0.771447 0.306594 -0.648086 8.096968 4.095187 -2.101522 15.693270 0.314700 -0.461200 9.000000 -80.752097 -2.284754 15.207790 6.414729 -13.270071 -1.458917 -1.290242 -0.218210 -1.774997 -7.125000 0.000000 0.000000 73.071880 0.496019 20.411895 -13.096931 22.934852 -3.299088 0.264495 -0.665486 -4.826933 7.125000 0.000000 0.000000 
42.151875 17.254704 -6.450545 12.232308 80.755510 15.326258 -24.096736 14.131960 -1.218250 4.117852 11.783606 37.524033 -0.261764 3.275610 7.209238 0.490400 -4.489900 -12.459200 35.380267 0.328740 -23.154347 -3.266145 -10.499344 29.814428 -0.829431 -12.090667 -27.820625 -3.355700 -11.249800 33.126900 0.869858 -0.562583 -0.773961 0.284601 -0.620720 8.062446 4.140145 -2.135479 15.657592 0.337800 -0.475100 8.985100 -80.816905 -1.862657 15.061918 6.538515 -13.437869 -1.489215 -1.285255 -0.221891 -1.984240 -7.125000 0.000000 0.000000 72.950643 0.465050 20.750515 -13.353705 23.236001 -3.388779 0.266547 -0.663042 -5.127194 7.125000 0.000000 0.000000 
